<?xml version="1.0" standalone="no"?>
<!DOCTYPE svg PUBLIC "-//W3C//DTD SVG 20010904//EN"
 "http://www.w3.org/TR/2001/REC-SVG-20010904/DTD/svg10.dtd">
<svg version="1.0" xmlns="http://www.w3.org/2000/svg"
 width="655.000000pt" height="655.000000pt" viewBox="0 0 655.000000 655.000000"
 preserveAspectRatio="xMidYMid meet">
<metadata>
Created by potrace 1.14, written by Peter Selinger 2001-2017
</metadata>
<g transform="translate(0.000000,655.000000) scale(0.100000,-0.100000)"
fill="#000000" stroke="none">
<path d="M3075 6323 c-418 -49 -651 -126 -989 -324 -124 -73 -175 -111 -258
-188 -73 -67 -57 -68 31 -2 79 58 284 165 304 158 6 -2 -20 -20 -57 -41 -123
-69 -373 -250 -398 -288 -8 -13 -21 -40 -29 -61 -8 -23 -21 -39 -34 -42 -11
-2 -51 -9 -88 -15 -145 -23 -339 -100 -458 -181 -162 -110 -354 -335 -453
-532 -67 -133 -81 -186 -101 -374 -19 -178 -19 -330 1 -648 8 -137 17 -340 20
-450 l5 -199 30 -13 c92 -39 110 -69 204 -343 36 -107 67 -196 69 -198 15 -14
30 67 47 251 25 267 33 317 70 432 39 124 184 458 249 576 28 52 60 114 71
139 35 82 78 155 88 152 6 -1 10 1 10 5 -3 21 3 34 28 57 16 15 31 22 36 17 5
-5 17 -7 26 -4 14 4 14 3 1 -6 -13 -9 -13 -12 -1 -23 9 -8 11 -9 7 -1 -3 6 -3
14 2 17 4 2 9 40 10 83 2 107 13 236 20 248 3 5 7 20 8 32 2 13 15 49 31 81
15 31 27 62 25 69 -1 6 8 20 20 30 13 10 24 24 26 31 3 15 52 61 65 62 5 0 6
4 2 10 -3 5 6 16 19 25 28 18 79 28 70 13 -3 -5 -12 -7 -19 -4 -7 2 -23 -7
-36 -22 -14 -15 -16 -20 -5 -12 17 13 35 20 63 22 6 1 14 9 16 19 3 13 0 16
-14 14 -12 -3 -19 2 -19 12 0 10 6 13 16 9 8 -3 12 -2 9 4 -3 5 13 14 35 20
33 9 45 8 58 -2 9 -7 13 -8 9 -2 -4 7 3 14 17 16 16 3 23 1 20 -7 -5 -13 20
-38 43 -41 8 -1 22 -6 31 -10 9 -4 19 -8 22 -9 3 -1 21 -8 40 -16 19 -7 38
-12 43 -11 4 1 7 -2 7 -8 0 -5 6 -10 13 -10 7 0 29 -9 50 -20 20 -11 50 -20
67 -20 16 0 30 -3 30 -8 0 -4 17 -13 38 -20 61 -22 294 -82 332 -86 19 -3 60
-7 90 -11 30 -3 78 -10 105 -16 28 -5 93 -12 145 -15 52 -2 142 -9 200 -14
233 -22 494 -32 870 -35 458 -3 573 -16 805 -91 196 -64 521 -220 570 -274 9
-10 32 -79 50 -152 50 -207 118 -438 179 -611 30 -86 62 -192 71 -234 11 -55
65 -499 65 -540 0 -2 4 -3 9 -3 5 0 12 19 16 43 18 115 71 248 109 272 14 9
23 22 20 29 -3 7 6 58 20 113 35 136 52 250 75 508 33 358 44 551 39 705 -4
130 -8 154 -36 238 -89 261 -169 406 -298 541 -50 53 -107 121 -126 151 -43
67 -203 237 -318 338 -218 192 -597 393 -1009 536 -332 115 -651 167 -1016
164 -110 0 -213 -3 -230 -5z m1372 -564 c160 -38 363 -116 363 -140 0 -9 -27
-2 -45 12 -17 12 -195 69 -325 104 -102 27 -117 34 -83 34 24 1 64 -4 90 -10z
m-2197 -29 c-43 -24 -240 -103 -314 -125 -107 -31 -159 -35 -163 -15 -3 12 13
18 70 27 40 6 144 36 232 67 153 52 211 68 175 46z m2611 -137 c13 -17 13 -17
-6 -3 -11 8 -22 16 -24 17 -2 2 0 3 6 3 6 0 17 -8 24 -17z m-557 -39 c156 -32
356 -116 506 -212 l35 -23 -30 7 c-16 4 -79 31 -140 59 -60 28 -141 64 -180
79 -38 15 -84 34 -101 41 -16 8 -74 24 -128 35 -55 12 -108 26 -120 31 -28 11
67 1 158 -17z m-2299 -184 c26 -2 23 -4 -15 -11 -83 -14 -170 -10 -170 10 0 6
117 7 185 1z m2213 -60 c124 -41 212 -79 212 -91 0 -4 -39 8 -87 27 -49 19
-124 47 -168 61 -75 25 -113 43 -88 43 6 0 65 -18 131 -40z m272 -116 l25 -15
-25 7 c-14 3 -29 10 -34 15 -16 14 6 10 34 -7z m-133 -70 c-3 -3 -12 -4 -19
-1 -8 3 -5 6 6 6 11 1 17 -2 13 -5z m-2380 -181 c-4 -3 -1 -13 6 -22 11 -14
10 -14 -5 -2 -16 12 -16 31 -1 31 4 0 3 -3 0 -7z m2396 -14 c69 -14 75 -29 10
-29 -67 0 -253 26 -283 40 -33 14 189 5 273 -11z"/>
<path d="M1835 4921 c-6 -11 13 -26 22 -17 4 3 0 6 -8 6 -11 0 -11 2 1 10 9 6
10 10 3 10 -6 0 -14 -4 -18 -9z"/>
<path d="M1439 4184 c-13 -14 -19 -25 -14 -24 23 5 36 -1 29 -12 -5 -9 -2 -9
9 1 9 7 17 19 16 25 0 7 -2 7 -5 -1 -3 -7 -12 -9 -21 -6 -12 5 -11 8 7 18 13
7 18 15 13 18 -6 4 -21 -5 -34 -19z"/>
<path d="M2163 4000 c-148 -13 -193 -46 -378 -284 -33 -42 -72 -100 -86 -128
-25 -48 -54 -156 -45 -166 3 -2 19 13 37 34 18 22 89 96 158 165 136 136 186
168 295 189 128 26 416 4 601 -46 100 -26 124 -28 144 -10 25 23 65 112 58
130 -7 17 -154 67 -267 90 -175 35 -313 42 -517 26z"/>
<path d="M4415 3923 c-89 -11 -164 -26 -250 -53 -119 -37 -120 -37 -99 -61 10
-11 14 -25 9 -36 -4 -10 -11 -31 -16 -47 -8 -28 -8 -28 29 -23 20 2 93 17 162
31 245 53 504 44 639 -21 67 -32 172 -130 236 -222 54 -76 69 -87 59 -43 -28
120 -107 254 -203 345 -77 72 -147 110 -235 126 -55 10 -261 13 -331 4z"/>
<path d="M2225 3138 c-80 -30 -129 -77 -177 -168 -45 -88 -21 -244 57 -365 42
-65 78 -97 145 -131 74 -38 190 -40 265 -6 138 63 196 193 161 363 -31 146
-90 224 -214 282 -72 34 -183 46 -237 25z"/>
<path d="M4499 3097 c-58 -22 -92 -51 -127 -110 -38 -62 -57 -156 -47 -232 16
-130 134 -283 247 -321 121 -40 250 -13 333 70 63 63 82 125 71 238 -12 138
-111 292 -218 338 -65 29 -203 38 -259 17z"/>
<path d="M465 3033 c-65 -34 -125 -115 -140 -189 -34 -165 -32 -466 3 -639 23
-112 30 -135 43 -135 12 0 11 36 -2 122 -9 60 -8 82 6 142 19 77 44 135 69
155 14 12 16 9 16 -22 0 -20 -5 -39 -10 -42 -6 -3 -10 -37 -10 -74 0 -60 4
-73 30 -110 17 -23 42 -46 55 -51 14 -5 25 -12 25 -16 0 -3 -8 -3 -17 1 -13 4
-15 3 -7 -5 6 -6 21 -12 33 -13 25 -2 25 -1 4 -18 -11 -10 -14 -10 -9 -1 4 7
1 12 -9 12 -10 0 -13 -5 -9 -12 4 -7 3 -8 -5 -4 -6 4 -9 10 -7 14 2 4 -2 13
-10 20 -12 10 -14 10 -14 -2 0 -8 -9 -18 -21 -21 -17 -6 -18 -9 -7 -23 7 -9 8
-13 2 -9 -7 4 -15 0 -18 -9 -4 -11 -2 -15 8 -11 12 5 15 -10 6 -33 -1 -3 -2
-9 -1 -13 1 -4 4 -24 7 -45 3 -20 8 -40 11 -44 2 -5 0 -8 -5 -8 -5 0 -9 -7 -9
-15 0 -8 4 -15 9 -15 5 0 6 -5 3 -10 -8 -13 16 -70 30 -70 5 0 3 -5 -5 -10
-13 -8 -12 -10 3 -10 10 0 16 -4 13 -9 -3 -4 3 -19 14 -31 11 -13 20 -19 20
-14 0 5 5 1 11 -9 5 -9 8 -21 5 -25 -3 -4 4 -14 16 -21 16 -10 19 -10 13 1 -3
7 2 3 13 -9 24 -28 51 -38 121 -48 39 -5 52 -4 46 4 -5 8 1 10 19 5 21 -5 25
-3 20 10 -3 9 -1 16 5 16 6 0 11 9 11 19 0 11 4 22 9 25 5 3 7 27 5 53 -6 88
-23 259 -28 289 -2 10 -7 66 -10 124 -28 438 -37 492 -108 675 -33 82 -57 124
-71 125 -5 0 -16 9 -25 20 -23 27 -107 34 -147 13z m75 -402 c0 -5 -7 -14 -15
-21 -12 -10 -15 -10 -15 2 0 8 3 18 7 21 9 10 23 9 23 -2z"/>
<path d="M6147 2783 c10 -16 27 -45 38 -65 23 -44 30 -42 21 6 -8 40 -41 86
-62 86 -13 0 -12 -5 3 -27z"/>
<path d="M3334 2151 c-39 -24 -61 -55 -75 -104 -9 -34 -7 -44 15 -81 41 -70
113 -105 173 -85 39 13 41 28 13 112 -20 61 -79 177 -89 177 -3 0 -20 -9 -37
-19z"/>
<path d="M3419 1359 c-29 -29 -75 -38 -184 -39 -83 -1 -88 -2 -70 -16 53 -40
187 -58 323 -44 138 14 204 19 250 20 23 0 42 4 42 10 0 14 -63 27 -159 34
-68 4 -92 11 -121 31 -44 31 -54 31 -81 4z"/>
<path d="M1605 1242 c-3 -3 -5 -16 -5 -29 0 -17 4 -22 13 -17 8 5 8 3 -2 -9
-7 -9 -17 -14 -22 -11 -5 3 -9 -3 -9 -13 0 -15 -2 -16 -10 -3 -5 8 -10 10 -10
4 0 -6 3 -14 7 -18 11 -10 12 -37 2 -30 -5 3 -6 10 -3 16 4 7 2 8 -4 4 -9 -5
-9 -13 0 -29 10 -19 9 -21 -4 -9 -13 10 -18 10 -24 1 -4 -8 -3 -9 4 -5 12 7
14 3 14 -39 0 -42 -2 -46 -14 -39 -10 6 -10 4 -2 -7 6 -8 9 -26 7 -41 -3 -22
1 -28 14 -29 11 0 13 -3 6 -6 -7 -2 -13 -9 -13 -14 0 -6 6 -7 13 -3 9 6 9 4
-1 -8 -9 -11 -10 -18 -2 -23 5 -3 10 -18 10 -33 0 -21 -2 -24 -10 -12 -5 8
-10 10 -10 4 0 -6 8 -18 17 -25 15 -12 16 -12 8 1 -4 8 -5 12 -1 8 4 -3 8 -10
8 -15 0 -4 5 -14 11 -22 9 -12 9 -13 0 -7 -9 5 -11 2 -7 -8 3 -9 11 -13 18
-10 6 3 2 -2 -8 -10 -18 -15 -18 -16 -2 -16 9 0 24 -7 32 -15 18 -18 4 -20
-16 -2 -8 6 -6 2 4 -10 10 -13 23 -20 29 -16 5 3 7 1 3 -5 -3 -5 0 -13 6 -15
9 -4 8 -6 -2 -6 -9 -1 -5 -6 10 -14 15 -8 25 -21 24 -35 0 -11 3 -19 8 -16 4
3 8 0 8 -6 0 -6 4 -9 9 -6 4 3 19 -7 32 -22 22 -25 22 -25 2 -8 -13 11 -23 15
-23 10 0 -14 39 -36 51 -29 5 4 8 3 7 -2 -2 -4 0 -9 4 -11 4 -1 20 -14 34 -28
15 -13 32 -23 38 -21 5 2 18 -4 28 -12 10 -9 20 -14 21 -12 1 2 13 -2 27 -9
14 -8 33 -14 42 -15 9 0 20 -4 25 -9 5 -5 2 -6 -6 -1 -10 6 -12 4 -7 -4 6 -9
11 -9 21 -1 10 8 15 8 21 -1 5 -8 3 -9 -6 -4 -8 5 -11 4 -7 -2 4 -6 18 -9 32
-8 14 2 25 -1 25 -6 0 -6 7 -6 18 0 13 7 23 6 30 -1 7 -7 12 -8 12 -3 0 6 4 4
9 -4 7 -10 30 -14 85 -13 42 1 82 4 88 8 6 4 8 3 5 -2 -5 -10 39 -12 48 -3 4
5 113 3 225 -4 25 -1 51 -7 59 -11 9 -6 12 -5 8 1 -4 6 4 11 18 11 16 0 22 -5
18 -12 -4 -6 1 -5 10 2 9 8 21 11 26 8 5 -4 12 -2 15 3 7 11 44 3 65 -13 11
-8 13 -8 7 2 -8 14 17 15 49 3 11 -5 27 -3 37 2 12 8 21 7 32 -2 12 -10 16
-11 16 -1 0 9 3 10 13 1 8 -6 17 -8 21 -4 11 11 48 14 41 3 -3 -6 1 -7 10 -4
20 8 135 11 135 3 0 -3 7 -6 15 -6 8 0 15 5 15 10 0 5 8 3 17 -4 11 -10 14
-10 9 -2 -9 16 4 16 38 3 14 -5 26 -6 26 -1 0 5 15 5 34 1 25 -5 33 -4 30 4
-3 8 11 11 48 10 29 -1 58 -3 63 -4 22 -5 36 1 30 13 -4 6 2 2 12 -10 15 -19
21 -20 36 -9 17 13 25 32 8 22 -11 -7 -8 20 3 31 4 4 6 4 4 -2 -1 -5 2 -10 7
-10 6 0 9 4 7 8 -1 5 2 6 8 2 8 -5 7 -12 -2 -23 -11 -13 -10 -15 9 -10 12 3
24 1 27 -6 3 -6 5 -5 5 3 1 11 4 10 14 -4 13 -16 14 -15 9 14 -2 18 -7 29 -11
24 -3 -5 -14 -12 -23 -16 -12 -4 -16 -1 -13 12 3 15 -4 17 -45 17 -27 -1 -48
3 -47 8 1 5 -8 9 -20 11 -22 2 -28 -7 -23 -30 1 -5 -2 -6 -7 -2 -4 5 -8 16 -8
25 0 19 -23 23 -44 8 -11 -8 -13 -8 -7 2 7 12 4 13 -31 16 -23 1 -42 18 -36
31 3 6 -5 -1 -17 -15 -12 -14 -19 -19 -15 -12 9 17 -12 41 -33 37 -9 -1 -26 5
-36 14 -11 9 -16 10 -12 4 4 -8 1 -13 -9 -13 -9 0 -13 4 -10 10 4 6 -1 7 -11
3 -12 -4 -15 -3 -10 6 4 6 4 10 -1 9 -4 -1 -17 3 -29 9 -16 10 -25 9 -41 -2
-17 -12 -20 -12 -20 0 0 8 4 12 8 9 4 -2 10 -1 13 4 3 5 0 9 -7 10 -7 0 -22 3
-34 5 -18 5 -21 2 -18 -15 3 -11 1 -17 -3 -14 -7 7 -8 12 -11 38 0 7 -8 3 -16
-8 -11 -14 -14 -15 -9 -3 3 10 0 20 -7 25 -8 5 -10 3 -4 -7 8 -12 6 -12 -8 0
-14 11 -17 11 -17 0 0 -8 -6 -4 -15 8 -10 14 -22 19 -35 16 -13 -3 -20 0 -20
8 0 11 -2 11 -10 -1 -9 -13 -12 -12 -25 4 -15 20 -15 20 -29 0 -14 -18 -14
-18 -13 0 1 11 -5 20 -16 21 -9 2 -15 -1 -11 -6 3 -5 10 -6 16 -3 7 5 8 2 3
-6 -6 -10 -12 -8 -27 9 -11 15 -18 18 -19 10 0 -8 -4 -5 -9 6 -5 11 -9 14 -9
8 -1 -7 -6 -13 -12 -13 -6 0 -9 7 -5 15 3 8 2 14 -2 14 -4 -1 -10 0 -14 1 -5
1 -12 4 -18 5 -5 1 -12 4 -15 5 -13 6 -31 6 -41 -2 -6 -4 -20 2 -34 17 -17 18
-27 22 -35 15 -9 -8 -14 -6 -19 5 -3 9 -11 13 -17 9 -7 -4 -18 1 -26 11 -10
15 -13 16 -13 4 0 -9 -7 -16 -15 -16 -10 0 -12 4 -5 12 13 16 -12 28 -29 14
-6 -5 -9 -6 -6 -3 9 13 -29 33 -42 22 -9 -7 -13 -7 -13 1 0 7 -4 10 -9 6 -6
-3 -15 3 -20 14 -7 13 -18 17 -31 14 -12 -3 -22 1 -26 11 -3 9 -10 14 -14 11
-5 -3 -11 -1 -15 5 -4 6 -11 8 -16 5 -5 -4 -9 4 -10 17 0 22 -1 22 -9 3 -5
-11 -9 -14 -9 -7 -1 7 -6 10 -12 7 -5 -4 -18 3 -28 14 -19 21 -37 29 -26 11 3
-5 4 -10 0 -10 -3 0 -10 11 -15 25 -5 14 -22 31 -37 37 -16 7 -38 21 -51 32
-13 12 -25 20 -28 19 -13 -9 -33 0 -38 15 -4 10 -12 19 -19 20 -45 6 -57 10
-71 21 -9 8 -16 19 -16 27 0 7 -5 16 -12 20 -6 4 -8 3 -4 -4 3 -6 0 -9 -9 -8
-20 3 -65 46 -65 63 0 8 -4 11 -10 8 -5 -3 -10 2 -10 11 0 16 -1 16 -16 -2 -8
-10 -13 -13 -9 -7 3 7 1 21 -5 30 -11 17 -11 17 -6 0 4 -11 2 -16 -5 -11 -6 3
-9 14 -6 24 4 14 0 17 -15 15 -14 -3 -18 0 -14 11 3 9 2 12 -5 9 -6 -4 -8 -13
-5 -21 3 -7 0 -16 -6 -20 -7 -4 -8 -3 -4 4 3 6 -2 16 -13 22 -16 8 -22 6 -31
-7 -10 -16 -11 -16 -7 3 4 19 -14 29 -28 16z m12 -24 c-3 -8 -6 -5 -6 6 -1 11
2 17 5 13 3 -3 4 -12 1 -19z m438 -237 c3 -5 2 -12 -3 -15 -5 -3 -9 1 -9 9 0
17 3 19 12 6z m79 -49 c3 -5 -1 -9 -9 -9 -8 0 -12 4 -9 9 3 4 7 8 9 8 2 0 6
-4 9 -8z m568 -247 c3 0 9 -3 13 -7 6 -5 -19 -4 -35 2 -3 1 -9 2 -13 1 -5 -1
-6 3 -2 9 3 6 12 7 18 3 7 -4 15 -8 19 -8z m243 -74 c3 -5 2 -12 -3 -15 -5 -3
-9 1 -9 9 0 17 3 19 12 6z m214 -84 c0 -9 -2 -8 -6 1 -2 6 -10 9 -15 6 -7 -4
-8 -2 -4 5 9 13 26 5 25 -12z m125 -26 c3 -5 -1 -11 -9 -14 -9 -4 -12 -1 -8 9
6 16 10 17 17 5z m211 -81 c3 -6 -1 -7 -9 -4 -18 7 -21 14 -7 14 6 0 13 -4 16
-10z m32 -23 c1 -29 1 -30 -8 -9 -5 13 -7 28 -3 33 8 14 9 12 11 -24z"/>
<path d="M1580 1201 c0 -6 4 -13 10 -16 6 -3 7 1 4 9 -7 18 -14 21 -14 7z"/>
<path d="M1816 1151 c-3 -4 6 -19 19 -31 23 -21 25 -22 25 -5 0 10 -3 15 -7
12 -9 -9 -34 13 -27 24 3 5 3 9 0 9 -3 0 -7 -4 -10 -9z"/>
<path d="M1900 1084 c0 -20 27 -37 36 -23 4 7 3 9 -4 5 -6 -3 -15 2 -21 11 -6
10 -11 13 -11 7z"/>
<path d="M1662 636 c7 -8 15 -12 17 -11 5 6 -10 25 -20 25 -5 0 -4 -6 3 -14z"/>
<path d="M3660 415 c-11 -13 -11 -18 0 -28 10 -9 11 -9 6 1 -4 7 -2 19 4 27 7
8 10 15 7 15 -2 0 -10 -7 -17 -15z"/>
<path d="M3690 425 c0 -2 6 -8 13 -14 10 -8 14 -7 14 2 0 8 -6 14 -14 14 -7 0
-13 -1 -13 -2z"/>
</g>
</svg>
